<?xml version="1.0" encoding="UTF-8"?>
<svg id="Camada_2" data-name="Camada 2" xmlns="http://www.w3.org/2000/svg" viewBox="0 0 425.01 380.39">
  <defs>
    <style>
      .cls-1 {
        fill: #f0c034;
      }

      .cls-2 {
        fill: #4485ea;
      }

      .cls-3 {
        fill: #fbfcf9;
      }

      .cls-4 {
        fill: #4683e9;
      }

      .cls-5 {
        fill: #f8fcf6;
      }

      .cls-6 {
        fill: #f6bc13;
      }

      .cls-7 {
        fill: #34a755;
      }

      .cls-8 {
        fill: #4283f4;
      }

      .cls-9 {
        fill: #31a951;
      }

      .cls-10 {
        fill: #1fab4c;
      }

      .cls-11 {
        fill: #3a85f5;
      }

      .cls-12 {
        fill: #3a77da;
      }

      .cls-13 {
        fill: #32a653;
      }

      .cls-14 {
        fill: #f8ba04;
      }

      .cls-15 {
        fill: #f8fbf9;
      }

      .cls-16 {
        fill: #f0fbf1;
      }

      .cls-17 {
        fill: #fafbf9;
      }

      .cls-18 {
        fill: #28974b;
      }

      .cls-19 {
        fill: #20a75d;
      }

      .cls-20 {
        fill: #4285f9;
      }

      .cls-21 {
        fill: #f2f8ef;
      }

      .cls-22 {
        fill: #f7bc1d;
      }

      .cls-23 {
        fill: #f8ba0f;
      }

      .cls-24 {
        fill: #32a954;
      }

      .cls-25 {
        fill: #fcf7e1;
      }

      .cls-26 {
        fill: #3f78dc;
      }

      .cls-27 {
        fill: #46aa61;
      }

      .cls-28 {
        fill: #ebbe24;
      }

      .cls-29 {
        fill: #5082db;
      }

      .cls-30 {
        fill: #477fd7;
      }

      .cls-31 {
        fill: #fcfce7;
      }

      .cls-32 {
        fill: #fefcec;
      }

      .cls-33 {
        fill: #fefefe;
      }

      .cls-34 {
        fill: #f9bb1a;
      }

      .cls-35 {
        fill: #467cd3;
      }

      .cls-36 {
        fill: #29a95d;
      }

      .cls-37 {
        fill: #f8faf9;
      }

      .cls-38 {
        fill: #4786f7;
      }

      .cls-39 {
        fill: #fcfdf9;
      }

      .cls-40 {
        fill: #faf9f1;
      }

      .cls-41 {
        fill: #33a251;
      }

      .cls-42 {
        fill: #fafcf7;
      }

      .cls-43 {
        fill: #ecc243;
      }
    </style>
  </defs>
  <g id="Camada_1-2" data-name="Camada 1">
    <g>
      <path class="cls-39" d="M268.66,282.03c.85,2.53,2.05,5.33,3.17,5.08l16.83,28.17c-.91,1.96-1.49,3.38-2.74,3.56-7.02,1-9.95-6.29-10.85-14.96-.42-4.04-2.63-6.11-5.73-7.73-2.18-1.14-.09-5.18-.46-6.78-.87-3.13-4.04-6.25-1.31-9.39.44.45,1.37,1.41,1.1,2.05Z"/>
      <path class="cls-17" d="M313.74,356.93c7.88,8.93,17.41,15.7,28.65,19.89-2.16,2.19-7.76,4.91-9.98,1.68s-6.84-3.54-8.79-5.34c-2.16-2.73-2.61-4.91-5.78-7.71l-10.41-9.18c-1.7-1.5-1.35-5.64-1.03-7.11,1.51.11,2.43,1.36,2.77,3.75l4.57,4.03Z"/>
      <path class="cls-3" d="M355.18,181.49l-7.54-12.35c-1.68-.46-3.32-4.01-3.27-6.07l-2.14-3.67c1.4-2.85,3.26-3.78,5.79-3.47,7.03.85,3.06,10.75,4.86,13.75,1.42,2.37,1.64,4.19.96,6.89,0,1.23,2.05,3.29,1.34,4.91Z"/>
      <path class="cls-42" d="M266.34,277.95c-.18.83-.63,2.23-1.44,2.22s-4.27-2.34-6.57-4.45c-1.2-1.1.19-3.07.14-4.42-.09-2.62-.96-4.3.45-6.27l7.41,12.92Z"/>
      <path class="cls-37" d="M313.74,356.93c-1.82-.94-4.51-1.2-5.99-3.23-.51-1.07-.05-3.74-1.35-4.55.12-.4.02-1.45-.4-1.39l-2.49.38c-2.05.32-2.47-2.57-2.05-4.31.22-.93.72-1.96,1.99-2.72l10.29,15.82Z"/>
      <path class="cls-37" d="M302.61,339.03c-.62,1.05-1.5,2.08-2.32,1.8-1.08-.37-2.72-1.51-2.68-2.34s.97-2.07,2.02-2.72c-3.91-4.16-6.89-9.37-8.09-14.83l11.06,18.09Z"/>
      <path class="cls-40" d="M174.07,257.15c.45,4.42-2.52,4.59-1.73,2.45.36-.99.32-1.53,1.73-2.45Z"/>
      <path class="cls-33" d="M271.83,287.11c-.31,1.21-1.19.97-1.38.51-.21-.53-.47-1.23-.85-1.58-1.5-1.4-2.28-2.85-.94-4,1.99,1.14,2.21,3.47,3.17,5.08Z"/>
      <g>
        <path class="cls-14" d="M181.88,133.91l.69-.32,10.14,17.46c1.14.85,1.92,2.23,2.33,4.15,6.1,9.88,11.9,19.94,17.4,30.16l-.36.94c1.58,2.1.42,4.66-3.48,7.68-.62,2.72-1.75,4.43-3.39,5.11-1.5,1.38-2.58,3.33-3.39,5.19-2.47,3.13-4.66,6.48-6.57,10.06l-2.84,6.62-12.44,21.72-.94.21.52.51c-18.5,31.52-37.13,62.92-55.91,94.2l-1.18-.42-2.07-1.48c5-15.01,3.81-32.38-3.97-46.4l.31-3.32c-.67.39-1.71.92-2.11.53-1.89-1.84-6.43-7.79-7.72-10.1l.75-2.31c-3.05.35-3.98-.46-2.79-2.43l-4.31-3.89-2.32,1-10.82-6.5-.61-2.37c-1.29.04-2.76-.56-4.43-1.78-.07.93-.26.95-.55.07-5.23.07-10.54-.46-15.93-1.62-4.1-1.1-8.62-1.25-13.54-.44-.18.86-.63,1.6-1.5,1.83-7.19,1.12-13.94,3.68-20.25,7.68-.96,1.81-2.71,2.42-4.34.81-.94,1.86-6.78,8.64-7.52,8.67-.86.03-1.63-.14-2.33-.69l8.98-16.08c7.74-12.12,15.14-24.44,22.2-36.95l.99-.18c1.5-5.27,5.12-10.79,8.3-15.25-.71-1.77-.07-4.01,1.92-6.71,3.76-6.87,7.93-13.27,12.49-19.22,5.81-9.38,11.52-18.94,17.14-28.67l1.05-.1c2.05-1.38,3.39-3.48,4-6.3-.63-1.43,1.03-4.08,2.61-3.97,1.8-.86,2.23-1.49,1.27-1.89-1.41-.54-1.18-1.22.24-1.73,2.32-5.93,5.57-11.1,9.76-15.52l1.64-5.95,6.44-11.68,12.71-21.17c1.25-1.64,2.39-3.25,3.41-4.83,1.68-5.61,5.64-12.07,9.22-17l7.46-12.18c.62-.68,1.35-1.02,2.23-.92-2.01,12.34-1.19,24.13,2.45,35.37,8.36,17.53,18.02,34.33,28.96,50.4Z"/>
        <path class="cls-40" d="M180.51,243.16c-2.82,5.05-6.12,9.7-9.19,14.98l-27.21,46.65-16.66,28.47-4.74,7.41c-.4-1.28-.02-2.64-.24-3.51.8-.36,1.5-.8,2.2-2l54.37-92.29c1.11-1.33,1.37-1.54,1.47.29Z"/>
        <path class="cls-15" d="M213.34,186.75l23.69,40.8c1.74,3,4.04,5.4,4.81,8.41-1.57.28-2.85-.08-4.12-.87,1.14-3.46-.63-5.99-3.93-7.06,1.51-3.98-3.15-4.54-3.71-9.99-.38,1.41-1.43,2.04-1.59,1.61-3.42-9.12-3.85-6.84-5.17-8.83-1.53-2.32-.41-6.72-5.11-7.52,1.37-2.01,1.07-3.47.55-4.66-.38-.87-2.06-1.43-2.74-2.39-1.04-1.46-.76-3.93-1.89-4.96-2.41.83-3.75,1.21-5.1,3.05-.73,1-1.39,2.52-.51,4.5l-3.32.25,6.87-12.78c.52-1.37.76-.88,1.26.46Z"/>
        <path class="cls-28" d="M166.4,106.2c.47.33.55,1.64.84,2.14,5.46,7.8,10.45,16.19,14.96,24.61.11.2-.07.55-.32.95-3.23-1.26-4.21-4.38-5.92-7.28l-19.24-32.71-5.42-12.63c-2.49-5.81-3.87-20.74-1.48-28.16.5-1.55-.04-3.64-1.58-4.07,1.36-2.23,2.13-4.25,3.98-6.23l1.13.21c-6.46,23.26-.18,43.85,13.05,63.17Z"/>
        <path class="cls-6" d="M97.62,137.38l-.24,1.73c1.1,1.05.13,1.39-1.27,1.89-.62,1.43-1.56,2.77-2.61,3.97-.26,4.46-1.59,6.56-4,6.3l-4.76,7.99c-2.02,3.4-3.6,6.19-5.56,9.71l-5.33,9.58c-.62,1.11-1.24,1.68-2.55,1.49,1.33-3.96,3.35-8.02,6.04-12.17l19.66-32.13c1.25-.94,1.46-.39.63,1.64Z"/>
        <path class="cls-22" d="M48.59,221.22l-14.17,23.76c-1.69,2.84-2.7,5.64-4.66,8.42-1.48,2.1-3.32,3.23-4.36,4.95l22.75-39.41c.99-.46,1.14.3.45,2.28Z"/>
        <path class="cls-31" d="M77.34,167.88l-6.04,12.17c-4.6,8.32-12.95,19.33-14.41,25.93-1,1.93-1.86,2.33-2.57,1.21,1.51-4.82,4.1-8.74,6.91-13.27l16.11-26.03Z"/>
        <path class="cls-23" d="M97.62,137.38l-.63-1.64,12.02-19.84.25,5.12c-.02.94-.39,1.9-.98,2.39-.39.32-1.08.49-2.34.24-1.68,2.71-3.99,6.74-4.65,9.72.24.34,1.26,1.93,1.05,2.17-.19.21-.68.27-.86.05l-1.36-1.74-2.49,3.53Z"/>
        <path class="cls-32" d="M180.51,243.16l-1.47-.29,8.91-15.25c1.42-2.44,2.18-5.3,4.47-6.67-2.01,4.69-4.93,9.7-7.6,14.49l-4.31,7.73Z"/>
        <path class="cls-34" d="M48.59,221.22l-.45-2.28c2.17-3.67,4.92-7.75,6.18-11.76l2.57-1.21c-.73,3.31-2.86,5.54-4.77,8.95l-3.53,6.3Z"/>
        <path class="cls-25" d="M131.57,78.22c-.56,1.57-.92,1.56-1.24-.09,1.76-3.99,4.08-7.57,6.31-11.85,1.11-2.12,1.62-4.58,4.14-5.05l-3.09,6.18c-1.91,3.82-4.73,7.04-6.13,10.82Z"/>
        <path class="cls-1" d="M195.26,214.33c.92-2.14.78-3.45,2.94-5.8,1.02-1.11,1.27-4.22,3.63-4.26-1.58,3.64-3.89,6.93-6.57,10.06Z"/>
        <path class="cls-43" d="M128.16,83.05l2.17-4.92,1.24.09c-.7,1.91-.87,4.28-3.41,4.83Z"/>
        <path class="cls-23" d="M89.49,151.27c1.19-2.01,2.46-4.54,4-6.3-.21,2.31.25,4.56,1.23,7.29-2.23,4.06-3.51,6.63-4.13,4.28-.27-1.02.97-2.78.67-4.61-.14-.84-1.35-1.03-1.77-.67Z"/>
        <path class="cls-23" d="M96.11,141c.51-.56.95-1.19,1.27-1.89l1.9-1c.67,1.47-.15,2.11-.85,2.5-.59.33-1.75.32-2.33.39Z"/>
        <g>
          <path class="cls-7" d="M116.74,285.95c8.46,12.96,10.4,29.92,7.11,45.48-.46,2.16-1.91,3.66-1.38,5.72,1.18.09,1.26,1.26.24,3.51-.69-.56-1.01.06-1.24.32-.84,3.07-2.26,5.89-4.27,8.44-1.33,1.05-3.18,3.79-3.53,5.55-4.26,6.98-9.73,11.96-16.41,14.96-3.35,2.77-7.78,4.1-11.64,5.77-1.25-.4-2.03-1.24-1.62-2.51-6.45-1.52-14.17,2.1-19.74,5.05-11.13,3.34,6.97-3.86,9.74-2.64.65.29.66,1.56.62,2.48l-3.07,1.47c-7.3,1.53-14.96.79-22.19-1-.27-1.67-1.88-2.07-4.84-1.2-7.74-1.91-14.17-6.17-20.78-10.2-3.48-2.39-7.24-5.49-9.16-9.25-.5-.49-1.32-1.56-1.94-1.81-3.9-3.92-6.35-9.13-8.33-14.23-.83-5.51-3.4-10.96-3.75-16.77.1-1.08.46-1.75,1.1-2.01.75-3.93.68-8.09-.07-12.03-.39.96-.8.99-1.22.05.61-8.1,2.7-16.52,7.29-23.87,2.8-4.48,5.06-9.84,8.75-12.83l9.85-7.98c2.53,1.35,1.93,3.02.22,5.01,3.23,1.37,2.24,4.13.07,6.17,7.9-1.66,7.61-4.33,3-10.43,2.62-2.44,11.73-8.36,14.87-7.04,1.47.62,2.49,4.45,2.43,6.12,1.33.65,2.17-1.07,2.5-5.16,1.77-5.9,16.49-4.34,10.74,2.03v1.46c4.84.53,7.9,2.4,9.19,5.63l-.09,27.14c1.66,1.12,36.47.36,40-.25.61-.11,1.6-.97,1.73-1.54-2.71-4.93-.77-8.14,5.83-9.64Z"/>
          <g>
            <path class="cls-9" d="M85.61,375.71c-2.95,1.28-5.77,2.12-8.95,2.78-.9.18-1.58.05-2.04-.4-3.14-2.48-8.14,2.64-15.26.72,3.12-.93,4.65-.49,5.9-3.99l12.95-3.97c3.25-1,6.73.81,10.36,1.37-1.98,1.04-3.31,1.5-2.96,3.49Z"/>
            <path class="cls-5" d="M97.25,369.94l10.4-8.62c2.34-1.94,3.3-5.14,6.01-6.34-.66,3.31-3.79,5.54-5.84,8.52-2.6,3.79-5.36,7.62-10.58,6.43Z"/>
            <path class="cls-21" d="M12.63,356.11c-3.55-1.4-7.51-8.79-8.33-14.23l8.33,14.23Z"/>
            <path class="cls-21" d="M23.74,367.17c-1.84-1.12-3.79-1.03-5.73-3.93-1.02-1.53-4.13-2.82-3.44-5.33l9.16,9.25Z"/>
            <path class="cls-41" d="M49.36,378.56l-4.84-1.2c2.13-1.72,5.02-2.66,8.05-.81l-3.21,2Z"/>
            <path class="cls-18" d="M1.65,323.11c-.41.54-.35,1.71-1.1,2.01l-.55-9.02.37-4.96c.34.05.79.07,1.22-.05.75,3.93.82,8.08.07,12.03Z"/>
            <path class="cls-16" d="M117.19,349.43c1.17-3.02,2.22-6.08,4.27-8.44,1.53,1.29-1.35,6.15-4.27,8.44Z"/>
            <path class="cls-27" d="M74.62,378.09l2.04.4-5.11,1.07c.13-1.61,1.85-1.59,3.07-1.47Z"/>
            <path class="cls-24" d="M88.62,371.16c-.41-1.75-.3-4.33.36-5.76.6-1.3,2.89-2.82,4.66-2.82,3.81,0,4.09-4.24,5.74-5.16,3.75-2.11,5.1-3.37,5.99-8.04.63-3.33,7.96-4.43,10.9-1-1.52,1.92-3.65,4.14-5.06,6.35-3.25,5.08-7.75,8.06-11.95,11.42-3.24,2.59-5.82,6.29-10.64,5.03Z"/>
            <path class="cls-36" d="M121.79,325.56c2.47-6.49-3.2-15.21,1.29-20.85l.48,24.42c-2.06-.45-2.39-1.94-1.77-3.57Z"/>
            <path class="cls-10" d="M1.65,323.11l-.07-12.03c1.56,2.65,1.37,10.31.07,12.03Z"/>
          </g>
        </g>
        <g>
          <path class="cls-7" d="M81.83,258.19c-.96-.14-1.66.71-2.1,1.55-3.93.88-8.49,1.35-12.92,1.16l-2.14-4.36c-4.62.69-8.43.49-12.32-.4,6.84-2.59,13.88-1.91,21.42-.35,2.9.6,6.27.02,8.05,2.41Z"/>
          <path class="cls-19" d="M76.55,257.78c-1.86.68-3.77.39-5.57.34-.32-.24-.52-.51-.53-.55,2.13-.71,5.05-.78,6.1.2Z"/>
        </g>
        <g>
          <path class="cls-13" d="M52.35,256.13c5.06-.74,9.89-.66,14.47.25.62,2.76,3.12,3.5,7.5,2.23,2.76-.82,5.26-.97,7.51-.43.15.02.41,0,.55-.07,1.45,1.16,2.92,1.75,4.43,1.78,4.63,1.52,9.42,5.62,13.75,7.87l7.1,6.31,9.09,11.88c0,3.87-3.77,3.02-4.9,4.15-1.52,1.54,2.5,4.29.48,7.02-1.2,1.63-2.46,2.17-4.8,2.17l-37.04.02c-1.07,0-3.05.38-3.75-.7-.43-.66.58-2.12.58-3.46l.06-23.86c.01-5.69-8.56-2.19-9.32-6.66-.29-1.72.4-3.54,2.42-5.07-1.88-.72-5.54-1.42-7.66.03-2.36,1.62-2.02,5.54-2.98,7.79-.69,1.62-4.94,1.11-4.92-.58.02-2.22-1.01-5.75-3.02-5.64-3.66,2.66-6.33,4.12-11.09,5.98,4.41,1.87,5.07,8.24,2.25,10.28-1.36.99-5.08.83-6.57,2.82-1.31-.15-2.31-2.19-1.77-3.35s1.65-1.87,2.77-3.81c-2.34.97-3.97.96-5.37-.6,2.91-1.86,4.38-3.69,4.15-6.04,7.49-4.52,20.16-11.68,26.09-10.32Z"/>
          <path class="cls-7" d="M107.65,274.08c-1.82-.47-3.53,1.64-5.12,2.15-2.58.83-2.83-2.38-.63-2.3,1.83.53,3.11-1.93,2.37-2.33-1.82-1-3.4-1.9-3.72-3.82,3.01,1.57,5.08,3.67,7.1,6.31Z"/>
          <path class="cls-7" d="M86.8,259.89c-.72.88-1.81,1.18-2.24.66-.82-1-1.45-1.75-2.18-2.44,1.78-.9,3.22,1.38,4.43,1.78Z"/>
          <path class="cls-7" d="M95.68,268.55c-2.14.44-6.69-4.12-12.05,1.76-.43-3.88,2.52-5.93,5.33-6.32,3.4-.47,6.08,1.77,7.7,4.58l.41.71c.95.39,2.05.56,3.25.58-.17,2.3-1.65,2.47-2.41,2.37-1.22-.16-1.54-1.61-1.07-2.56l-1.16-1.13Z"/>
          <path class="cls-7" d="M106.68,278.4c.9-1.04,2.77.97,2.65,1.24-.41.93-1.11.52-1.48.6-.93.2-2.02-.86-1.17-1.83Z"/>
        </g>
        <g>
          <path class="cls-8" d="M220.67,1.13c11.24.03,22.78,5.52,31.41,13.33,1.66,1.5,2.35,3.6,4.27,4.84,7.51,4.84,10.6,12.58,15.05,20.13l70.82,119.98c2.75-1.09,4.22,1.66,2.14,3.67.17,2.73,2.24,6.38,3.27,6.07l2.29-.09c2.22,3.91,3.97,8.06,5.25,12.44l59.14,100.57c-.09,1.96.73,3.65,2.47,5.07,3.04,2.77,3.8,7.35,5.1,11.12.58,2.12.67,3.03-1.42,2.69l-.27,2.02c1.67,7.08,2.41,14.21,2.2,21.38l1.01.76c.33-.86.67-.83,1.03.04-2.61,25.59-22.18,47.02-47.09,52.98-9.81.54-19.97.68-29.78-.07l-5.18-1.24c-5.38,1.56-12.21-3.23-16.73-6.52-4.39-3.2-10.94-8.35-11.92-13.36-3.9-2.2-5.26-5.41-6.85-9.28-2.7-.81-5.15-3.8-3.43-6.54l-.85-2.08c-2.41,1.22-4.07-1.45-2.74-3.64l-8.32-14.45c-.51-2.32-1.78-3.79-2.9-5.66-.72.32-1.83.71-2.18.26-3.9-5.06-13.07-20.34-15.63-26.16l.97-2.27c-1.58-.73-3-3.27-3.17-5.08-1.4.24-1.48-.8-1.1-2.05-.42-.44-.92-1.52-1.22-2.03-4.35.53-7.22-8.89-7.41-12.92l-17.09-29.06c-1.96-.67-3.18-2.46-3.66-5.34l-3.04-3.33c-4.35-8.62-9.38-17.03-15.11-25.22-1.03-3.7-2.76-7.41-5.17-11.13-2.48-.11-3.34-2.39-1.52-4.19-14.83-26.43-30.2-52.56-46.1-78.4-1.45.05-1.96-1.19-.84-2.14-8.04-11.28-12.92-23.32-14.64-36.14l.02-14.86c-.15-7.81,2.52-15.48,6.41-22.37-.09-.46.05-1.21.25-1.59,3.27-4.77,6.96-8.56,11.08-11.36l1.65-2.82c3.02-.85,5.2-2.9,6.53-6.13,6.81-4.58,14.84-9.42,21.98-7.63l1.14-.47c5.21.85,6.42.6,3.65-.75-.87-.28-.86-.61,0-.99,5.31-.88,10.86-.61,16.19.04Z"/>
          <path class="cls-4" d="M151.78,55.2l-.02,14.86c1.05,9.13,5.1,17,9.41,25.36l5.23,10.78c-2.42-1.69-3.62-4.93-5.31-7.72-10.79-17.78-11.64-26.95-10.12-46.99.22-2.93,2.37-5.66,1.26-8.68,2.53-2.7,2.95-7.4,5.97-9.99.49,2.47-4.51,8.08-4.86,15.23-.14,2.95-1.28,5.06-1.55,7.14Z"/>
          <path class="cls-20" d="M421.89,298.25c1.09,3.17,2.04,6.61,2.39,10.01.09,5.77-.2,11.38-.87,16.83-1.18,1.42-2.21.83-2.21-.66,1.44-5.24.05-9.01-1.57-13.4-1.96-5.33-1.28-11.44-1.84-16.63l1.25-.31c.68,1.16.68,2.7,1,4.36.22,1.15,1.71,1.13,1.86-.2Z"/>
          <path class="cls-2" d="M158.45,31.24c4.02-7.49,12.12-15.51,19.26-20.32-.73,1.4-.43,2.79-.6,4.39-.25,2.38-3.64,2.84-5.36,2.29.13,2.36-.68,3.53-1.77,5.75-.31-.56-1.36-1.89-2.14-1.88-5.44,3.32-5.51,9.84-9.4,9.78Z"/>
          <path class="cls-38" d="M204.47,2.08c2.14-.03,4.81.94,7.14.66,5.2-.62,10.08-1.04,14.94,1.29-9.42-.36-18.59,1.36-26.88-.73l-.2-1.16c1.45-.78,3.66-.85,4.99-.06Z"/>
          <path class="cls-26" d="M377.35,378.11l-8.81,1.34c-4.04.46-8.06.38-12.06-.24-3.07.01-5.92-.46-8.91-1.17,1.48-2.06,4.02-.13,6.01-.14l18.54-.15c1.83-.02,4.05-1.59,5.23.36Z"/>
          <path class="cls-12" d="M424.44,325.13l-1.03-.04.02-15.01c0-1.02.42-1.7.85-1.83l.73,7.01-.57,9.86Z"/>
          <path class="cls-38" d="M220.67,1.13l-16.19-.04c2.96-1.52,11.47-1.41,16.19.04Z"/>
          <path class="cls-8" d="M368.54,379.45c-3.84.58-8.4,1.32-12.06-.24l12.06.24Z"/>
          <path class="cls-35" d="M416.79,287.13c-.7-.64-2.15-.8-2.63-2.2-.27-.8-1.09-1.99.17-2.86l2.47,5.07Z"/>
          <path class="cls-29" d="M204.48,1.09v.99s-5,.06-5,.06c.87-1.95,3.66-.64,5-1.05Z"/>
          <path class="cls-4" d="M213.34,186.75l-1.26-.46-8.42-15.4-21.78-36.99-14.64-25.56c3.99,2.61,7.16,10.22,10.83,16.3l9.33,15.49c2.45,4.06,3.97,8.27,6.69,11.71,1.63-1.74.91-3.01,2.11-3.19-.24,1.81-1.95,4.18-.72,6.2l16.32,26.97c1.02,1.68,1.54,3.4,1.54,4.91Z"/>
          <path class="cls-11" d="M151.76,70.06c-.55-4.73-.59-10.07.02-14.86.36.06.75.81.75,1.88v11.15c0,1.07-.38,1.82-.76,1.83Z"/>
          <path class="cls-30" d="M347.64,169.14c0,1.14-.93,1.1-1.25.55l-.93-1.59c-.98-1.68-2.51-3.72-1.1-5.03l3.27,6.07Z"/>
        </g>
      </g>
    </g>
  </g>
</svg>